# Blender v2.65 (sub 0) OBJ File: 'breakout.blend'
# www.blender.org
mtllib paddle.mtl
o paddle_Cube.002
v -1.000000 -1.000000 3.720516
v -1.000000 -1.000000 -3.720516
v 1.000000 -1.000000 -3.720516
v 1.000000 -1.000000 3.720516
v -1.000000 1.000000 3.720516
v -1.000000 1.000000 -3.720516
v 1.000000 1.000000 -3.720516
v 1.000000 1.000000 3.720516
vt 0.321738 0.115841
vt 0.323509 0.693221
vt 0.168321 0.693697
vt 0.166550 0.116317
vt 0.480945 0.849362
vt 0.480469 0.694173
vt 0.635657 0.693697
vt 0.636133 0.848886
vt 0.639200 0.693697
vt 0.637428 0.116317
vt 0.792617 0.115841
vt 0.794388 0.693221
vt 0.478697 0.693697
vt 0.479174 0.848886
vt 0.323985 0.849362
vt 0.323509 0.694173
vt 0.325281 0.693697
vt 0.323509 0.116317
vt 0.478697 0.115841
vt 0.480469 0.693221
vt 0.635657 0.115841
vt 0.637428 0.693221
vt 0.482240 0.693697
vt 0.480469 0.116317
vn -1.000000 -0.000000 0.000000
vn 0.000000 0.000000 -1.000000
vn 1.000000 -0.000000 0.000000
vn 0.000000 0.000000 1.000000
vn -0.000000 -1.000000 0.000000
vn -0.000000 1.000000 0.000000
usemtl paddle
s off
f 2/1/1 1/2/1 5/3/1
f 2/1/1 5/3/1 6/4/1
f 6/5/2 7/6/2 3/7/2
f 6/5/2 3/7/2 2/8/2
f 7/9/3 8/10/3 4/11/3
f 7/9/3 4/11/3 3/12/3
f 1/13/4 4/14/4 8/15/4
f 1/13/4 8/15/4 5/16/4
f 1/17/5 2/18/5 3/19/5
f 1/17/5 3/19/5 4/20/5
f 8/21/6 7/22/6 6/23/6
f 8/21/6 6/23/6 5/24/6
o ball_Sphere
v -0.462600 0.801247 0.000000
v -0.801247 0.462600 0.000000
v -0.801247 -0.462600 0.000000
v -0.462600 -0.801247 0.000000
v -0.374252 0.801247 -0.271910
v -0.648223 0.462600 -0.470961
v -0.748503 -0.000000 -0.543819
v -0.648223 -0.462600 -0.470961
v -0.374252 -0.801247 -0.271910
v -0.000000 -0.925201 0.000000
v -0.142951 0.801247 -0.439959
v -0.247599 0.462600 -0.762031
v -0.285903 -0.000000 -0.879918
v -0.247599 -0.462600 -0.762031
v -0.142951 -0.801247 -0.439959
v 0.142951 0.801247 -0.439959
v 0.247599 0.462600 -0.762031
v 0.285903 -0.000000 -0.879918
v 0.247599 -0.462600 -0.762031
v 0.142951 -0.801247 -0.439959
v -0.000000 0.925201 0.000000
v 0.374251 0.801247 -0.271910
v 0.648223 0.462600 -0.470961
v 0.748503 -0.000000 -0.543819
v 0.648223 -0.462600 -0.470961
v 0.374251 -0.801247 -0.271910
v 0.462600 0.801247 0.000000
v 0.801247 0.462600 0.000000
v 0.925201 -0.000000 0.000000
v 0.801247 -0.462600 0.000000
v 0.462600 -0.801247 0.000000
v 0.374251 0.801247 0.271910
v 0.648223 0.462600 0.470962
v 0.748503 -0.000000 0.543820
v 0.648222 -0.462600 0.470962
v 0.374251 -0.801247 0.271910
v 0.142951 0.801247 0.439959
v 0.247599 0.462600 0.762032
v 0.285902 -0.000000 0.879918
v 0.247599 -0.462600 0.762032
v 0.142951 -0.801247 0.439959
v -0.142952 0.801247 0.439959
v -0.247599 0.462600 0.762032
v -0.285903 -0.000000 0.879918
v -0.247599 -0.462600 0.762031
v -0.142952 -0.801247 0.439959
v -0.374252 0.801247 0.271910
v -0.648223 0.462600 0.470961
v -0.748504 -0.000000 0.543819
v -0.648223 -0.462600 0.470961
v -0.374252 -0.801247 0.271910
v -0.925201 -0.000000 -0.000000
vn -0.689152 0.689152 -0.223919
vn -0.689152 -0.689152 -0.223919
vn -0.569582 0.246943 -0.783962
vn -0.425919 0.689152 -0.586228
vn -0.425919 -0.689152 -0.586228
vn -0.569582 -0.246943 -0.783962
vn 0.000000 -0.246943 -0.969030
vn 0.000000 0.246943 -0.969030
vn 0.000000 0.689152 -0.724617
vn 0.000000 -0.689152 -0.724617
vn 0.569582 -0.246943 -0.783962
vn 0.569582 0.246943 -0.783962
vn 0.425919 0.689152 -0.586227
vn 0.425919 -0.689152 -0.586227
vn 0.689152 -0.689152 -0.223919
vn 0.921602 -0.246943 -0.299447
vn 0.921602 0.246943 -0.299447
vn 0.689152 0.689152 -0.223919
vn 0.689152 0.689152 0.223919
vn 0.689152 -0.689152 0.223919
vn 0.921602 -0.246943 0.299447
vn 0.921602 0.246943 0.299447
vn 0.569582 0.246943 0.783962
vn 0.425919 0.689152 0.586227
vn 0.425919 -0.689152 0.586228
vn 0.569581 -0.246943 0.783962
vn -0.000000 0.246943 0.969030
vn -0.000000 0.689152 0.724617
vn -0.000000 -0.689152 0.724617
vn -0.000000 -0.246943 0.969030
vn -0.569582 -0.246943 0.783961
vn -0.569582 0.246943 0.783962
vn -0.425919 0.689152 0.586227
vn -0.425919 -0.689152 0.586227
vn -0.257909 -0.962528 -0.083800
vn -0.257909 0.962528 -0.083799
vn -0.921602 -0.246943 -0.299447
vn -0.921602 0.246943 -0.299447
vn -0.159396 -0.962528 -0.219390
vn -0.159396 0.962528 -0.219390
vn -0.000000 -0.962528 -0.271181
vn 0.000000 0.962528 -0.271181
vn 0.159396 0.962528 -0.219390
vn 0.159396 -0.962528 -0.219390
vn 0.257909 0.962528 -0.083800
vn 0.257909 -0.962528 -0.083800
vn 0.257909 0.962528 0.083800
vn 0.257909 -0.962528 0.083800
vn 0.159396 -0.962528 0.219390
vn 0.159396 0.962528 0.219390
vn -0.000000 -0.962528 0.271181
vn -0.000000 0.962528 0.271181
vn -0.159396 -0.962528 0.219390
vn -0.159396 0.962528 0.219390
vn -0.257909 0.962528 0.083799
vn -0.921602 -0.246943 0.299446
vn -0.921602 0.246943 0.299446
vn -0.257909 -0.962528 0.083799
vn -0.689152 0.689152 0.223918
vn -0.689152 -0.689152 0.223919
usemtl ball
s off
f 10//7 9//7 13//7
f 10//7 13//7 14//7
f 12//8 11//8 16//8
f 12//8 16//8 17//8
f 15//9 14//9 20//9
f 15//9 20//9 21//9
f 14//10 13//10 19//10
f 14//10 19//10 20//10
f 17//11 16//11 22//11
f 17//11 22//11 23//11
f 16//12 15//12 21//12
f 16//12 21//12 22//12
f 22//13 21//13 26//13
f 22//13 26//13 27//13
f 21//14 20//14 25//14
f 21//14 25//14 26//14
f 20//15 19//15 24//15
f 20//15 24//15 25//15
f 23//16 22//16 27//16
f 23//16 27//16 28//16
f 27//17 26//17 32//17
f 27//17 32//17 33//17
f 26//18 25//18 31//18
f 26//18 31//18 32//18
f 25//19 24//19 30//19
f 25//19 30//19 31//19
f 28//20 27//20 33//20
f 28//20 33//20 34//20
f 34//21 33//21 38//21
f 34//21 38//21 39//21
f 33//22 32//22 37//22
f 33//22 37//22 38//22
f 32//23 31//23 36//23
f 32//23 36//23 37//23
f 31//24 30//24 35//24
f 31//24 35//24 36//24
f 36//25 35//25 40//25
f 36//25 40//25 41//25
f 39//26 38//26 43//26
f 39//26 43//26 44//26
f 38//27 37//27 42//27
f 38//27 42//27 43//27
f 37//28 36//28 41//28
f 37//28 41//28 42//28
f 42//29 41//29 46//29
f 42//29 46//29 47//29
f 41//30 40//30 45//30
f 41//30 45//30 46//30
f 44//31 43//31 48//31
f 44//31 48//31 49//31
f 43//32 42//32 47//32
f 43//32 47//32 48//32
f 47//33 46//33 51//33
f 47//33 51//33 52//33
f 46//34 45//34 50//34
f 46//34 50//34 51//34
f 49//35 48//35 53//35
f 49//35 53//35 54//35
f 48//36 47//36 52//36
f 48//36 52//36 53//36
f 53//37 52//37 57//37
f 53//37 57//37 58//37
f 52//38 51//38 56//38
f 52//38 56//38 57//38
f 51//39 50//39 55//39
f 51//39 55//39 56//39
f 54//40 53//40 58//40
f 54//40 58//40 59//40
f 18//41 12//41 17//41
f 9//42 29//42 13//42
f 11//43 60//43 15//43
f 11//43 15//43 16//43
f 60//44 10//44 14//44
f 60//44 14//44 15//44
f 18//45 17//45 23//45
f 13//46 29//46 19//46
f 18//47 23//47 28//47
f 19//48 29//48 24//48
f 24//49 29//49 30//49
f 18//50 28//50 34//50
f 30//51 29//51 35//51
f 18//52 34//52 39//52
f 35//53 29//53 40//53
f 18//54 39//54 44//54
f 18//55 44//55 49//55
f 40//56 29//56 45//56
f 18//57 49//57 54//57
f 45//58 29//58 50//58
f 18//59 54//59 59//59
f 50//60 29//60 55//60
f 29//61 9//61 55//61
f 58//62 57//62 60//62
f 58//62 60//62 11//62
f 57//63 56//63 10//63
f 57//63 10//63 60//63
f 18//64 59//64 12//64
f 9//65 10//65 56//65
f 9//65 56//65 55//65
f 59//66 58//66 11//66
f 59//66 11//66 12//66
o brick_Cube.001
v -1.000000 -1.000000 2.021931
v -1.000000 -1.000000 -2.021931
v 1.000000 -1.000000 -2.021931
v 1.000000 -1.000000 2.021931
v -1.000000 1.000000 2.021931
v -1.000000 1.000000 -2.021931
v 1.000000 1.000000 -2.021931
v 1.000000 1.000000 2.021931
usemtl brick
s off
f 62//1 61//1 65//1
f 62//1 65//1 66//1
f 66//2 67//2 63//2
f 66//2 63//2 62//2
f 67//3 68//3 64//3
f 67//3 64//3 63//3
f 61//4 64//4 68//4
f 61//4 68//4 65//4
f 61//5 62//5 63//5
f 61//5 63//5 64//5
f 68//6 67//6 66//6
f 68//6 66//6 65//6
